<svg xmlns="http://www.w3.org/2000/svg" xmlns:xlink="http://www.w3.org/1999/xlink" width="500" zoomAndPan="magnify" viewBox="0 0 375 149.999998" height="200" preserveAspectRatio="xMidYMid meet" version="1.0"><defs><g/><clipPath id="1503312f5a"><path d="M 7.257812 3.128906 L 278 3.128906 L 278 119 L 7.257812 119 Z M 7.257812 3.128906 " clip-rule="nonzero"/></clipPath><clipPath id="535f7a81ea"><path d="M 97 31 L 367.378906 31 L 367.378906 147 L 97 147 Z M 97 31 " clip-rule="nonzero"/></clipPath><clipPath id="b8917de1cd"><path d="M 291 8 L 319 8 L 319 36 L 291 36 Z M 291 8 " clip-rule="nonzero"/></clipPath><clipPath id="ab5f5c5511"><path d="M 295.5625 4.457031 L 322.660156 12.027344 L 315.09375 39.125 L 287.996094 31.558594 Z M 295.5625 4.457031 " clip-rule="nonzero"/></clipPath><clipPath id="095af3fddf"><path d="M 295.5625 4.457031 L 322.660156 12.027344 L 315.09375 39.125 L 287.996094 31.558594 Z M 295.5625 4.457031 " clip-rule="nonzero"/></clipPath><clipPath id="e67ba4d895"><path d="M 57 115 L 85 115 L 85 143 L 57 143 Z M 57 115 " clip-rule="nonzero"/></clipPath><clipPath id="c2b29d13c4"><path d="M 60.914062 111.976562 L 88.011719 119.542969 L 80.445312 146.640625 L 53.347656 139.074219 Z M 60.914062 111.976562 " clip-rule="nonzero"/></clipPath><clipPath id="6bd93fee6f"><path d="M 60.914062 111.976562 L 88.011719 119.542969 L 80.445312 146.640625 L 53.347656 139.074219 Z M 60.914062 111.976562 " clip-rule="nonzero"/></clipPath></defs><g clip-path="url(#1503312f5a)"><path fill="#0c9142" d="M 22.722656 89.894531 C 19.476562 53.609375 90.515625 17.570312 181.421875 9.355469 C 216.859375 6.167969 250.085938 7.671875 277.625 12.863281 C 251.078125 6.710938 220.226562 3.179688 187.320312 3.179688 C 87.898438 3.179688 7.257812 35.367188 7.257812 75.0625 C 7.257812 91.5 21.078125 106.640625 44.308594 118.738281 C 31.472656 110.703125 23.71875 100.929688 22.722656 89.894531 Z M 22.722656 89.894531 " fill-opacity="1" fill-rule="nonzero"/></g><g clip-path="url(#535f7a81ea)"><path fill="#0c9142" d="M 330.316406 31.382812 C 343.152344 39.429688 350.910156 49.203125 351.890625 60.230469 C 355.152344 96.523438 284.109375 132.585938 193.207031 140.777344 C 157.769531 143.964844 124.539062 142.449219 97 137.269531 C 123.511719 143.421875 154.445312 146.953125 187.320312 146.953125 C 286.738281 146.953125 367.378906 114.765625 367.378906 75.0625 C 367.378906 58.636719 353.546875 43.492188 330.316406 31.382812 Z M 330.316406 31.382812 " fill-opacity="1" fill-rule="nonzero"/></g><g clip-path="url(#b8917de1cd)"><g clip-path="url(#ab5f5c5511)"><g clip-path="url(#095af3fddf)"><path fill="#0c9142" d="M 309.113281 8.242188 C 304.675781 19.03125 303.308594 19.804688 291.78125 18.007812 C 291.804688 18.015625 291.824219 18.027344 291.847656 18.035156 C 302.574219 22.449219 303.335938 23.835938 301.546875 35.339844 C 305.980469 24.550781 307.351562 23.777344 318.878906 25.574219 C 308.089844 21.136719 307.316406 19.769531 309.113281 8.242188 Z M 309.113281 8.242188 " fill-opacity="1" fill-rule="nonzero"/></g></g></g><g clip-path="url(#e67ba4d895)"><g clip-path="url(#c2b29d13c4)"><g clip-path="url(#6bd93fee6f)"><path fill="#0c9142" d="M 74.460938 115.757812 C 70.027344 126.546875 68.65625 127.320312 57.128906 125.523438 C 57.152344 125.535156 57.175781 125.542969 57.195312 125.550781 C 67.921875 129.964844 68.6875 131.355469 66.894531 142.855469 C 71.332031 132.066406 72.699219 131.296875 84.226562 133.089844 C 73.4375 128.65625 72.667969 127.285156 74.460938 115.757812 Z M 74.460938 115.757812 " fill-opacity="1" fill-rule="nonzero"/></g></g></g><g fill="#446df6" fill-opacity="1"><g transform="translate(79.615234, 107.864227)"><g><path d="M 40.03125 -69.703125 C 50.1875 -69.703125 58.21875 -67.160156 64.125 -62.078125 C 70.03125 -57.003906 72.984375 -49.753906 72.984375 -40.328125 L 51.984375 -40.328125 C 51.984375 -44.304688 50.9375 -47.457031 48.84375 -49.78125 C 46.75 -52.113281 43.78125 -53.28125 39.9375 -53.28125 C 35.488281 -53.28125 32.21875 -51.882812 30.125 -49.09375 C 28.03125 -46.300781 26.984375 -42.414062 26.984375 -37.4375 L 26.984375 -31.0625 C 26.984375 -26.15625 28.03125 -22.289062 30.125 -19.46875 C 32.21875 -16.644531 35.421875 -15.234375 39.734375 -15.234375 C 43.984375 -15.234375 47.203125 -16.328125 49.390625 -18.515625 C 51.578125 -20.710938 52.671875 -23.800781 52.671875 -27.78125 L 72.984375 -27.78125 C 72.984375 -18.414062 70.113281 -11.242188 64.375 -6.265625 C 58.632812 -1.296875 50.519531 1.1875 40.03125 1.1875 C 28.34375 1.1875 19.492188 -1.796875 13.484375 -7.765625 C 7.484375 -13.742188 4.484375 -22.570312 4.484375 -34.25 C 4.484375 -45.9375 7.484375 -54.765625 13.484375 -60.734375 C 19.492188 -66.710938 28.34375 -69.703125 40.03125 -69.703125 Z M 40.03125 -69.703125 "/></g></g></g><g fill="#446df6" fill-opacity="1"><g transform="translate(157.083013, 107.864227)"><g><path d="M 59.046875 -23.796875 C 59.046875 -15.234375 56.601562 -8.925781 51.71875 -4.875 C 46.84375 -0.832031 39.828125 1.1875 30.671875 1.1875 C 21.503906 1.1875 14.484375 -0.832031 9.609375 -4.875 C 4.734375 -8.925781 2.296875 -15.234375 2.296875 -23.796875 L 2.296875 -24.703125 L 22.90625 -24.703125 L 22.90625 -23.90625 C 22.90625 -20.78125 23.484375 -18.550781 24.640625 -17.21875 C 25.804688 -15.894531 27.582031 -15.234375 29.96875 -15.234375 C 32.363281 -15.234375 34.140625 -15.894531 35.296875 -17.21875 C 36.460938 -18.550781 37.046875 -20.78125 37.046875 -23.90625 L 37.046875 -68.515625 L 59.046875 -68.515625 Z M 59.046875 -23.796875 "/></g></g></g><g fill="#446df6" fill-opacity="1"><g transform="translate(223.498192, 107.864227)"><g><path d="M 36.140625 -69.703125 C 44.910156 -69.703125 52.113281 -67.925781 57.75 -64.375 C 63.394531 -60.820312 66.285156 -55.5625 66.421875 -48.59375 L 66.421875 -47.40625 L 45.8125 -47.40625 L 45.8125 -47.796875 C 45.8125 -49.785156 45.078125 -51.441406 43.609375 -52.765625 C 42.148438 -54.097656 39.925781 -54.765625 36.9375 -54.765625 C 34.019531 -54.765625 31.78125 -54.332031 30.21875 -53.46875 C 28.65625 -52.601562 27.875 -51.539062 27.875 -50.28125 C 27.875 -48.488281 28.9375 -47.160156 31.0625 -46.296875 C 33.1875 -45.441406 36.609375 -44.546875 41.328125 -43.609375 C 46.835938 -42.484375 51.367188 -41.304688 54.921875 -40.078125 C 58.472656 -38.847656 61.578125 -36.835938 64.234375 -34.046875 C 66.890625 -31.265625 68.25 -27.484375 68.3125 -22.703125 C 68.3125 -14.609375 65.570312 -8.601562 60.09375 -4.6875 C 54.613281 -0.769531 47.296875 1.1875 38.140625 1.1875 C 27.453125 1.1875 19.132812 -0.601562 13.1875 -4.1875 C 7.25 -7.769531 4.28125 -14.109375 4.28125 -23.203125 L 25.09375 -23.203125 C 25.09375 -19.753906 25.988281 -17.445312 27.78125 -16.28125 C 29.570312 -15.113281 32.359375 -14.53125 36.140625 -14.53125 C 38.929688 -14.53125 41.238281 -14.828125 43.0625 -15.421875 C 44.894531 -16.023438 45.8125 -17.257812 45.8125 -19.125 C 45.8125 -20.78125 44.796875 -22.019531 42.765625 -22.84375 C 40.742188 -23.675781 37.441406 -24.554688 32.859375 -25.484375 C 27.285156 -26.679688 22.671875 -27.925781 19.015625 -29.21875 C 15.367188 -30.519531 12.179688 -32.660156 9.453125 -35.640625 C 6.734375 -38.628906 5.375 -42.679688 5.375 -47.796875 C 5.375 -55.296875 8.273438 -60.820312 14.078125 -64.375 C 19.890625 -67.925781 27.242188 -69.703125 36.140625 -69.703125 Z M 36.140625 -69.703125 "/></g></g></g></svg>