<?xml version="1.0" encoding="utf-8"?>
<!-- Generator: Adobe Illustrator 19.2.1, SVG Export Plug-In . SVG Version: 6.00 Build 0)  -->
<svg version="1.1" id="layer" xmlns="http://www.w3.org/2000/svg" xmlns:xlink="http://www.w3.org/1999/xlink" x="0px" y="0px"
	 viewBox="0 0 652 652" style="enable-background:new 0 0 652 652;" xml:space="preserve">
<style type="text/css">
	.st0{fill:#003D6F;}
	.st1{fill:#F29300;}
</style>
<path class="st0" d="M17.9,292.6h16.7v110.7H17.9V292.6z M117.6,333.5h-16.1v7.9c-5.8-6.6-13.1-9.8-21.9-9.8
	c-10,0-18.1,3.8-24.2,11.3c-5.7,7.1-8.5,15.8-8.5,25.9c0,10.5,3.1,19.2,9.2,26.2c6.1,6.9,13.9,10.3,23.4,10.3
	c8.4,0,15.7-3.3,22.2-9.8v9.7c0,14.4-5.9,21.6-17.7,21.6c-6.4,0-11.3-2.2-14.6-6.5c-1.4-1.9-2.5-4.5-3.1-8H49.9
	c1,9.1,4.5,16.3,10.8,21.5c6,5,13.7,7.6,23,7.6c11,0,19.7-3.6,26-10.9c3.4-3.8,5.6-8.3,6.7-13.6c0.4-1.9,0.7-4.1,0.9-6.6
	c0.2-2.5,0.3-5.4,0.3-8.7V333.5z M102.1,368.6c0,6.3-1.7,11.5-4.9,15.6c-3.6,4.5-8.5,6.7-14.6,6.7c-6.2,0-11-2.2-14.5-6.7
	c-3.2-4.1-4.8-9.3-4.8-15.6c0-6.4,1.6-11.7,4.8-15.7c3.5-4.5,8.4-6.8,14.5-6.8c5.7,0,10.4,2.1,14.1,6.2
	C100.3,356.4,102.1,361.8,102.1,368.6 M133.5,403.3h16.2v-33.7c0-8.7,1.1-14.8,3.3-18.3c2.2-3.5,6-5.3,11.4-5.3
	c4.9,0,8.3,1.3,10.2,4c1.9,2.6,2.9,7.4,2.9,14.3v39h16.2v-42.8c0-9.8-2-16.9-5.9-21.3c-4.5-5.1-10.9-7.7-19-7.7
	c-7.1,0-13.4,2.8-19.1,8.4v-6.4h-16.2V403.3z M207.2,304.4c0,3,1,5.5,3.1,7.5c2.1,2,4.5,3.1,7.5,3.1c2.9,0,5.4-1,7.4-3.1
	c2.1-2.1,3.1-4.5,3.1-7.5c0-2.9-1-5.4-3.1-7.4c-2-2.1-4.5-3.1-7.4-3.1c-2.9,0-5.3,1-7.4,3.1C208.3,299.2,207.2,301.6,207.2,304.4
	 M225.8,333.5h-16.1v69.8h16.1V333.5z M273.9,348.5v-15h-12.5v-25.6h-16.1v25.6h-6.9v15h6.9v54.8h16.1v-54.8H273.9z M281,304.4
	c0,3,1,5.5,3.1,7.5c2,2,4.5,3.1,7.5,3.1c2.9,0,5.4-1,7.4-3.1c2-2.1,3.1-4.5,3.1-7.5c0-2.9-1-5.4-3.1-7.4c-2.1-2.1-4.5-3.1-7.5-3.1
	c-2.9,0-5.3,1-7.4,3.1C282,299.2,281,301.6,281,304.4 M299.6,333.5h-16.1v69.8h16.1V333.5z M312.3,367.9c0,10.7,3.5,19.6,10.6,26.7
	c7.1,7.2,15.8,10.8,26.3,10.8c10.6,0,19.5-3.5,26.7-10.5c7.2-7.1,10.8-15.8,10.8-26.3c0-10.4-3.6-19.1-10.8-26.2
	c-7.3-7.1-16.1-10.7-26.5-10.7c-10.4,0-19.2,3.5-26.4,10.6C315.9,349.2,312.3,357.8,312.3,367.9 M328.8,368.2
	c0-6.5,1.9-11.8,5.7-15.9c3.8-4.1,8.8-6.2,15-6.2c6.3,0,11.3,2.1,15.1,6.2c3.8,4.1,5.7,9.5,5.7,16.3c0,6.8-1.9,12.2-5.7,16.3
	c-3.8,4.1-8.8,6.1-15.1,6.1c-6.3,0-11.3-2.1-15.1-6.2C330.7,380.7,328.8,375.1,328.8,368.2 M450.4,342.3c-2.4-3.2-4.5-6.2-6.5-8.9
	c-3.1-1.2-6.7-1.9-10.7-1.9c-7.1,0-13.4,2.8-19.1,8.4v-6.4H398v69.8h16.2v-33.7c0-8.7,1.1-14.8,3.3-18.3c2.2-3.5,6.1-5.3,11.4-5.3
	c4.9,0,8.3,1.3,10.2,4c1.9,2.6,2.9,7.4,2.9,14.3v38.9h16.2v-42.8c0-3.2-0.2-6-0.6-8.6C454.9,348.4,452.5,345.2,450.4,342.3
	 M135.9,440c0.4,0.4,0.9,0.7,1.6,1c0.7,0.3,1.4,0.4,2.1,0.4c2.2,0,4-0.7,5.3-2.2c1.3-1.4,1.9-3.4,1.9-6c0-2.2-0.7-4-1.9-5.5
	c-1.3-1.4-3-2.1-5.1-2.1c-0.7,0-1.4,0.1-2.1,0.4c-0.7,0.3-1.2,0.6-1.4,1v-7.4h-2.7v21.7h1.3L135.9,440 M136.3,429
	c0.2-0.2,0.6-0.5,1.2-0.8c0.6-0.3,1-0.4,1.4-0.4c1.6,0,2.8,0.5,3.8,1.4c0.9,1,1.4,2.3,1.4,4c0,2.1-0.4,3.5-1.2,4.4
	c-0.8,0.9-2.1,1.3-4,1.3c-0.3,0-0.9-0.2-1.5-0.5c-0.7-0.3-1-0.6-1-0.7V429 M162.5,425.9h-2.7l-4,11.7l-4.5-11.7h-2.8l4.1,10.6
	c0.5,1.2,0.8,2.2,1.1,3c0.3,0.8,0.4,1.6,0.4,2.5c0,0.8-0.4,1.4-1.2,1.9c-0.8,0.5-1.8,0.8-2.9,0.8v2.4c1.4,0,2.6-0.3,3.8-1
	c1.1-0.7,1.9-1.5,2.2-2.4L162.5,425.9z M178.4,441v-15.2h-4.8v2.3h2.1V441H178.4z M177.2,420.1c-0.5,0-0.9,0.2-1.2,0.5
	c-0.3,0.3-0.5,0.7-0.5,1.2c0,0.5,0.2,0.9,0.5,1.2c0.3,0.3,0.7,0.5,1.2,0.5c0.5,0,0.9-0.2,1.2-0.5c0.3-0.3,0.5-0.7,0.5-1.2
	c0-0.5-0.2-0.9-0.5-1.2C178,420.3,177.6,420.1,177.2,420.1 M195.2,441v-9.4c0-4.1-1.7-6.1-5-6.1c-2,0-3.5,0.7-4.4,2.2l-0.9-2h-1.8
	V441h2.7v-11.3c0.4-0.5,0.9-1,1.5-1.4c0.7-0.4,1.3-0.5,1.9-0.5c1.1,0,2,0.3,2.5,1c0.5,0.6,0.7,1.8,0.7,3.4v8.8H195.2z M211.8,441
	v-21.4h-2.7v7c-0.8-0.7-2-1.1-3.6-1.1c-1.9,0-3.5,0.8-4.9,2.4c-1.4,1.6-2,3.6-2,5.8c0,2.3,0.6,4.1,1.8,5.4c1.2,1.4,2.7,2,4.6,2
	c1.8,0,3.2-0.5,4.1-1.4v1.1H211.8z M209.2,437.8c-0.2,0.3-0.5,0.6-1.1,0.9c-0.6,0.3-1.1,0.4-1.5,0.4c-3.3,0-5-1.8-5-5.5
	c0-1.7,0.5-3,1.3-4.1c0.9-1.1,2.1-1.6,3.5-1.6c1.2,0,2.1,0.5,2.8,1.5V437.8z M216,425.9v10c0,1.8,0.5,3.1,1.3,4.1
	c0.9,0.9,2.2,1.4,3.8,1.4c0.9,0,1.8-0.3,2.7-0.8c0.9-0.5,1.5-1,1.8-1.6v2.1h2.7v-15.2h-2.7v10.7c-0.2,0.7-0.7,1.3-1.5,1.8
	c-0.7,0.5-1.6,0.8-2.4,0.8c-2,0-3.1-1.2-3.1-3.5v-9.7H216z M244,427.1c-0.4-0.3-1.1-0.7-2-1c-0.9-0.3-1.8-0.5-2.6-0.5
	c-2.4,0-4.3,0.7-5.8,2.2c-1.4,1.5-2.1,3.4-2.1,5.8c0,2.4,0.7,4.3,2,5.6c1.3,1.4,3.1,2.1,5.1,2.1c2.1,0,3.9-0.5,5.4-1.4l-1.1-2.3
	c-1.2,0.9-2.4,1.4-3.6,1.4c-1.6,0-2.8-0.5-3.7-1.4c-0.9-0.9-1.3-2.3-1.3-4.1c0-1.8,0.4-3.2,1.3-4.2c0.9-1,2-1.5,3.5-1.5
	c0.7,0,1.3,0.1,2,0.4c0.7,0.2,1.2,0.5,1.5,0.8L244,427.1 M248.4,436.6c0,1.4,0.4,2.5,1.2,3.4c0.8,0.9,1.9,1.3,3.1,1.3
	c1.3,0,2.6-0.1,3.7-0.4l-0.4-2.4c-0.7,0.3-1.5,0.5-2.1,0.5c-1,0-1.6-0.3-2.1-0.8c-0.4-0.5-0.6-1.4-0.6-2.7V428h4.2v-2.1h-4.2v-4.2
	l-2.7,1v3.2h-1.8v2.1h1.8V436.6z M263.4,441v-15.2h-4.8v2.3h2.1V441H263.4z M262.2,420.1c-0.5,0-0.9,0.2-1.2,0.5
	c-0.3,0.3-0.5,0.7-0.5,1.2c0,0.5,0.2,0.9,0.5,1.2c0.3,0.3,0.7,0.5,1.2,0.5c0.5,0,0.8-0.2,1.2-0.5c0.3-0.3,0.5-0.7,0.5-1.2
	c0-0.5-0.2-0.9-0.5-1.2C263.1,420.3,262.7,420.1,262.2,420.1 M280.4,425.8h-2.8l-4.1,10.7l-4-10.7h-2.9l6.5,15.5h0.7L280.4,425.8z
	 M295.7,433.7c0.1-0.5,0.2-1,0.2-1.6c0-2-0.6-3.5-1.8-4.7c-1.2-1.2-2.9-1.8-5.1-1.8c-1.9,0-3.5,0.7-4.8,2c-1.5,1.5-2.3,3.5-2.3,6
	c0,2.4,0.8,4.3,2.2,5.8c1.3,1.3,2.9,1.9,4.9,1.9c1.3,0,2.5-0.2,3.6-0.6c0.9-0.3,1.5-0.7,1.9-1.1l-1.1-1.9c-1,0.9-2.3,1.4-3.9,1.4
	c-1.3,0-2.4-0.4-3.3-1.3c-1-1-1.5-2.3-1.5-4.1H295.7 M289.2,427.8c1.3,0,2.3,0.4,3.1,1.2c0.7,0.7,1,1.6,1,2.7h-8.4
	c0.1-1.1,0.5-2,1.3-2.7C287,428.2,288,427.8,289.2,427.8 M317.1,439.3c0.2,0.7,0.6,1.2,1.2,1.5c0.6,0.3,1.4,0.5,2.5,0.5V440
	c-0.8-0.5-1.2-1.3-1.2-2.7v-5.5c0-2.2-0.5-3.8-1.5-4.8c-1-1-2.6-1.5-4.8-1.5c-0.8,0-1.7,0.2-2.6,0.4c-0.9,0.3-1.6,0.6-2.1,1.1
	l1.1,2.3c0.9-0.9,2.2-1.4,3.9-1.4c2.2,0,3.3,1.2,3.3,3.7c-0.7-0.2-1.4-0.4-1.9-0.4c-2.1,0-3.8,0.5-5.1,1.6c-1.4,1.1-2,2.4-2,3.9
	c0,1.3,0.4,2.4,1.3,3.2c0.9,0.9,1.9,1.3,3.1,1.3C314.4,441.3,316,440.6,317.1,439.3 M316.9,437.2c-1.1,1.3-2.3,2-3.6,2
	c-1.9,0-2.8-0.8-2.8-2.4c0-1,0.4-1.8,1.3-2.5c0.8-0.7,2-1,3.3-1c0.4,0,1,0.1,1.8,0.3V437.2z M324.1,425.9v10c0,1.8,0.5,3.1,1.3,4.1
	c0.9,0.9,2.2,1.4,3.8,1.4c0.9,0,1.8-0.3,2.7-0.8c0.9-0.5,1.5-1,1.8-1.6v2.1h2.7v-15.2h-2.7v10.7c-0.2,0.7-0.7,1.3-1.5,1.8
	c-0.7,0.5-1.5,0.8-2.4,0.8c-2,0-3.1-1.2-3.1-3.5v-9.7H324.1z M341.6,436.6c0,1.4,0.4,2.5,1.3,3.4c0.8,0.9,1.8,1.3,3,1.3
	c1.3,0,2.5-0.1,3.7-0.4l-0.4-2.4c-0.7,0.3-1.4,0.5-2.1,0.5c-1,0-1.6-0.3-2.1-0.8c-0.4-0.5-0.7-1.4-0.7-2.7V428h4.2v-2.1h-4.2v-4.2
	l-2.7,1v3.2h-1.8v2.1h1.8V436.6z M351.7,433.4c0,2.4,0.6,4.3,1.8,5.8c1.2,1.4,2.9,2.1,5.1,2.1c2.1,0,3.8-0.7,5-2.1
	c1.2-1.4,1.8-3.4,1.8-5.8c0-2.5-0.6-4.4-1.8-5.8c-1.2-1.4-2.9-2.1-5.1-2.1c-2.1,0-3.7,0.7-5,2.2
	C352.3,429.2,351.7,431.1,351.7,433.4 M354.5,433.4c0-1.8,0.4-3.1,1.1-4.2c0.7-1,1.7-1.5,3-1.5c2.7,0,4,1.9,4,5.7
	c0,1.7-0.3,3.2-1.1,4.2c-0.7,1-1.7,1.5-3,1.5C355.9,439.1,354.5,437.2,354.5,433.4 M389,441v-10.2c0-1.7-0.4-3-1.3-3.9
	c-0.8-0.9-2.1-1.4-3.6-1.4c-0.9,0-1.7,0.2-2.5,0.6c-0.8,0.4-1.4,0.9-1.7,1.5c-0.9-1.4-2.4-2-4.6-2c-1.6,0-2.9,0.7-3.9,2l-0.9-1.7
	h-1.8V441h2.7v-11.2c0.3-0.5,0.7-1,1.3-1.4c0.6-0.4,1.2-0.6,1.7-0.6c0.9,0,1.7,0.2,2.2,0.6c0.6,0.4,0.9,1,0.9,1.8V441h2.7v-11.2
	c0.2-0.5,0.6-1,1.2-1.4c0.6-0.4,1.2-0.6,1.8-0.6c2.1,0,3.1,1.2,3.1,3.6v9.6H389z M402,439.3c0.2,0.7,0.6,1.2,1.2,1.5
	c0.5,0.3,1.4,0.5,2.5,0.5V440c-0.8-0.5-1.2-1.3-1.2-2.7v-5.5c0-2.2-0.5-3.8-1.5-4.8c-1-1-2.6-1.5-4.8-1.5c-0.8,0-1.7,0.2-2.6,0.4
	c-0.9,0.3-1.6,0.6-2.1,1.1l1.1,2.3c0.9-0.9,2.2-1.4,3.9-1.4c2.2,0,3.3,1.2,3.3,3.7c-0.7-0.2-1.4-0.4-1.9-0.4c-2.1,0-3.8,0.5-5.2,1.6
	c-1.3,1.1-2,2.4-2,3.9c0,1.3,0.4,2.4,1.3,3.2c0.9,0.9,1.9,1.3,3.1,1.3C399.2,441.3,400.9,440.6,402,439.3 M401.7,437.2
	c-1.1,1.3-2.3,2-3.6,2c-1.9,0-2.8-0.8-2.8-2.4c0-1,0.4-1.8,1.3-2.5c0.8-0.7,2-1,3.3-1c0.3,0,0.9,0.1,1.8,0.3V437.2z M410.1,436.6
	c0,1.4,0.4,2.5,1.2,3.4c0.8,0.9,1.9,1.3,3.1,1.3c1.3,0,2.6-0.1,3.7-0.4l-0.4-2.4c-0.7,0.3-1.5,0.5-2.2,0.5c-0.9,0-1.6-0.3-2.1-0.8
	c-0.4-0.5-0.7-1.4-0.7-2.7V428h4.2v-2.1h-4.2v-4.2l-2.7,1v3.2h-1.8v2.1h1.8V436.6z M425.1,441v-15.2h-4.8v2.3h2.1V441H425.1z
	 M423.9,420.1c-0.5,0-0.8,0.2-1.2,0.5c-0.3,0.3-0.5,0.7-0.5,1.2c0,0.5,0.2,0.9,0.5,1.2c0.3,0.3,0.7,0.5,1.2,0.5
	c0.5,0,0.9-0.2,1.2-0.5c0.3-0.3,0.5-0.7,0.5-1.2c0-0.5-0.2-0.9-0.5-1.2C424.8,420.3,424.4,420.1,423.9,420.1 M428.9,433.4
	c0,2.4,0.6,4.3,1.8,5.8c1.2,1.4,2.9,2.1,5.1,2.1c2.1,0,3.8-0.7,5-2.1c1.2-1.4,1.8-3.4,1.8-5.8c0-2.5-0.6-4.4-1.8-5.8
	c-1.2-1.4-2.9-2.1-5.1-2.1c-2.1,0-3.8,0.7-5,2.2C429.5,429.2,428.9,431.1,428.9,433.4 M431.7,433.4c0-1.8,0.4-3.1,1.1-4.2
	c0.7-1,1.7-1.5,3-1.5c2.7,0,4,1.9,4,5.7c0,1.7-0.4,3.2-1.1,4.2c-0.7,1-1.7,1.5-3,1.5C433.1,439.1,431.7,437.2,431.7,433.4 M458,441
	v-9.4c0-4.1-1.7-6.1-5-6.1c-2,0-3.5,0.7-4.4,2.2l-0.9-2H446V441h2.7v-11.3c0.4-0.5,0.9-1,1.5-1.4c0.7-0.4,1.3-0.5,1.9-0.5
	c1.2,0,2,0.3,2.5,1c0.5,0.6,0.7,1.8,0.7,3.4v8.8H458z"/>
<path class="st1" d="M532.6,397.7c0-3.7,2.9-6.6,6.6-6.6c3.7,0,6.6,2.9,6.6,6.6c0,3.7-2.9,6.6-6.6,6.6
	C535.5,404.3,532.6,401.4,532.6,397.7 M544.9,397.7c0-3.1-2.6-5.6-5.6-5.6c-3,0-5.6,2.5-5.6,5.6s2.6,5.6,5.6,5.6
	C542.3,403.3,544.9,400.8,544.9,397.7 M542.4,401.3h-1.2L539,398h-1.2v3.3h-1v-7.2h3.2c1.3,0,2.6,0.4,2.6,1.9c0,1.4-1,1.9-2.3,2
	L542.4,401.3z M539,396.9c0.9,0,2.5,0.2,2.5-1c0-0.7-1-0.9-1.8-0.9h-1.9v1.9H539z"/>
<path class="st1" d="M616.9,199.6c1.9,4.2,1.2,9.1-2.1,14.8c-1,1.7-4.8,7.5-11.6,17.5c-6.7,9.9-14.9,22-24.5,36.2
	c-9.6,14.2-20,29.5-31.2,45.8c-11.1,16.1-21.5,31.3-31.2,45.5c-2-1.5-4.2-2.8-6.4-3.7c4.7-10.3,9.7-21.2,15-32.7
	c5.4-11.7,10.7-23.3,15.9-34.8c5.2-11.5,10.3-22.5,15.2-32.9c4.9-10.4,9.3-19.8,13.2-28.1c3.9-8.3,7.1-15.2,9.6-20.7
	c2.5-5.5,4.1-8.7,4.7-9.8c3.2-5.8,7.1-8.9,11.7-9.4c4.5-0.5,8.8,0.3,12.8,2.6C612.1,192.2,615,195.5,616.9,199.6 M482.9,356
	c-3.1-12.3-5.6-22.1-7.5-29.6c-2-7.6-3.6-13.5-4.9-17.9c-1.3-4.4-2.3-7.6-3-9.7c-0.7-2.1-1.5-3.8-2.2-5.2c-1.6-3.5-4.1-5.7-7.3-6.8
	c-3.2-1.1-6.6-0.7-10.3,1c-3.6,1.7-6.1,4.2-7.3,7.4c-1.2,3.2-1,6.5,0.7,9.9c0.7,1.4,1.6,3.1,2.7,5c1.1,1.9,3,4.7,5.6,8.5
	c2.6,3.7,6.2,8.8,10.9,15c4.6,6.3,10.8,14.5,18.5,24.7C480.3,357.4,481.6,356.6,482.9,356 M517.1,386.2c0-11.2-9.1-20.4-20.4-20.4
	c-11.3,0-20.4,9.1-20.4,20.4c0,11.2,9.1,20.4,20.4,20.4C508,406.6,517.1,397.5,517.1,386.2"/>
</svg>
