<?xml version="1.0" encoding="utf-8"?>
<!-- Generator: Adobe Illustrator 19.2.1, SVG Export Plug-In . SVG Version: 6.00 Build 0)  -->
<svg version="1.1" id="layer" xmlns="http://www.w3.org/2000/svg" xmlns:xlink="http://www.w3.org/1999/xlink" x="0px" y="0px"
	 viewBox="0 0 652 652" style="enable-background:new 0 0 652 652;" xml:space="preserve">
<style type="text/css">
	.st0{fill:#F74902;}
</style>
<g>
	<path class="st0" d="M563.8,405.2V284.4l27.6,0.2V297l-0.1,3.6c1.5-6.3,11.7-17.2,30.5-18.5v29c-13.7,0.9-28.8,4.9-29.3,25.8l0,0
		v68.4L563.8,405.2L563.8,405.2z"/>
	<path class="st0" d="M239.9,407.7c-34.5,0-62.6-28.1-62.6-62.6s28.1-62.6,62.6-62.6c34.5,0,62.6,28.1,62.6,62.6
		S274.4,407.7,239.9,407.7z M240.9,309.9c-19.4,0-35.2,15.8-35.2,35.2c0,19.4,15.8,35.2,35.2,35.2c19.4,0,35.2-15.8,35.2-35.2
		C276,325.7,260.3,309.9,240.9,309.9z"/>
	<path class="st0" d="M373.5,407.8c-14.5-0.2-24.3-3.3-34.3-12.9l0.2-0.1l-0.7,10.6h-26.3v-143l28.6-28.5l-0.1,61.3l0.1-0.2
		c7.5-7.2,19.5-12.4,33.2-12.4l0.3,0c31.6,0,58.3,28.7,58.3,62.6c0,16.4-6.5,32.1-18.3,44.2c-11.3,11.6-26,18.3-40.3,18.4H373.5z
		 M370.1,310c-11.5,0-22.3,5.6-28.9,15.1l-0.3,0.4v39.3l0.3,0.4c6.6,9.5,17.4,15.1,28.9,15.1c19.4,0,35.2-15.8,35.2-35.2
		C405.2,325.7,389.5,310,370.1,310z"/>
	<path class="st0" d="M481.4,406.9c-25.9,0-44-15.4-44-37.4c0-24.9,19.4-38,56-38h26.4v-4.5c0-10.5-9.5-21.3-25.5-21.3
		c-11.4,0-21.4,3.4-27,9.2l-15.5-15.5c1.8-1.9,3.8-3.6,5.9-5.2c10.1-7.5,23.1-11.5,37.8-11.5c31.7,0,52.1,17.4,52.1,44.3v78.5h-27.3
		l0-11.6l-2.7,2.7C508,406.1,497,406.9,481.4,406.9z M494.1,352c-18.2,0-27.4,5.6-27.4,16.7c0,9.6,8.3,15.8,21,15.8
		c19.5,0,32.1-10.2,32.1-26V352L494.1,352L494.1,352z"/>
	<rect x="23.5" y="284.6" class="st0" width="28" height="120.8"/>
	<path class="st0" d="M37.3,268.5c-8.6,0-15.6-7-15.6-15.7c0-8.6,7-15.7,15.6-15.7c8.6,0,15.7,7,15.7,15.7
		C53,261.5,46,268.5,37.3,268.5z"/>
	<g>
		<path class="st0" d="M78.6,371.3c11.5,8.6,23.2,12.4,39.7,12.4c18.8,0,27.3-5.6,27.3-13.9c0-8.7-8.3-12.5-31.1-14.5
			c-29.9-2.7-49.8-11.2-49.8-36.6c0-21.9,21.2-36.2,50.5-36.2c19.7,0,38,6.7,52.3,18.5c0.2,0.1,0.3,0.3,0.5,0.4l-16.5,17
			c-9.9-7.6-22.6-11.8-37.5-11.8c-15.2,0-23.5,4.5-23.5,11.2c0,7.2,6.7,10.7,27,12.7c31.3,3.1,53.9,13.2,53.9,38.9
			c0,24.4-22.8,38.4-53.4,38.4c-22.1,0-39.8-5.4-55.9-18.8c-0.2-0.1-0.3-0.3-0.4-0.4L78.6,371.3z"/>
	</g>
</g>
</svg>
