<?xml version="1.0" encoding="utf-8"?>
<!-- Generator: Adobe Illustrator 19.0.0, SVG Export Plug-In . SVG Version: 6.00 Build 0)  -->
<svg version="1.1" id="layer" xmlns="http://www.w3.org/2000/svg" xmlns:xlink="http://www.w3.org/1999/xlink" x="0px" y="0px"
	 viewBox="-153 -46 652 652" style="enable-background:new -153 -46 652 652;" xml:space="preserve">
<g>
	<path d="M-91.6,196.4c-0.6,1.5-1.9,4.7-6.4,4.7h-10.7c-4.3,0-6.1-3.3-6.4-4.7l-16.6-56.5c0-1.5,0.9-2.9,2.6-2.9h10.6
		c2.1,0,3.2,1.6,3.6,2.9l11.5,43.7l11.5-43.7c0.4-1.4,1.5-2.9,3.6-2.9h10.6c1.7,0,2.6,1.5,2.6,2.9L-91.6,196.4z"/>
	<path d="M-18.6,137c1.5,0,3,1,3,2.9v9.8c0,1.7-1.6,3-3,3h-27.1v8.8h19.2c1.5,0,3.1,1.4,3.1,3v8.8c0,1.9-1.6,2.9-3.1,2.9h-19.2v8.9
		h27.1c1.5,0,3,1.4,3,3.1v9.8c0,1.9-1.6,2.9-3,2.9h-40.8c-1.7,0-2.9-1.5-2.9-2.9V140c0-1.5,1.2-2.9,2.9-2.9
		C-59.3,137-18.6,137-18.6,137z"/>
	<path d="M17.9,152.2V171h6c9.9,0,11.2-4.5,11.2-9v-0.9c0-4.5-1.2-8.9-11.2-8.9H17.9z M23.8,137c19.3,0,27.8,11.7,27.8,24v0.9
		c0,8-3.5,15.5-10.8,20l7.7,16.3c0,0.7-0.3,1.4-0.8,1.9c-0.6,0.6-1.4,1-2.1,1H35c-1,0-1.8-0.6-2.4-1.4c-0.3-0.5-0.7-1-1-1.6
		l-5.8-12.1h-8v12.1c0,0.7-0.2,1.2-0.6,1.8c-0.4,0.7-1.2,1.1-2.2,1.1H4.2c-1,0-1.8-0.6-2.4-1.4c-0.3-0.5-0.6-1-0.6-1.6v-58.1
		c0-0.7,0.1-1.2,0.5-1.7c0.6-0.8,1.5-1.4,2.5-1.4C4.2,137,23.8,137,23.8,137z"/>
	<path d="M69.6,201.2c-1.7,0-2.9-1.5-2.9-2.9v-58.1c0-1.7,1.2-3,2.9-3h10.8c1.9,0,2.8,1.4,2.8,3v45.3h23.6c1.5,0,3,1.4,3,3v9.8
		c0,1.9-1.6,2.9-3,2.9H69.6z"/>
	<path d="M154.3,177.9l-5.9-19.8l-5.9,19.8H154.3z M176.7,198.2c0,1.5-0.9,2.9-2.6,2.9h-10.1c-2.1,0-3.2-1.6-3.6-2.9l-1.7-5.1H138
		l-1.7,5.1c-0.5,1.4-1.5,2.9-3.6,2.9h-10.1c-1.7,0-2.6-1.5-2.6-2.9l17-58.1c0.5-1.5,1.2-3,3.6-3h15.4c2.4,0,3.2,1.6,3.6,3
		L176.7,198.2z"/>
	<path d="M239,163.6c1.7,0,2.9,1.5,2.9,2.9v31.7c0,1.5-1.2,2.9-2.9,2.9h-7.6c-1.7,0-2.5-1.6-2.9-2.9l-0.6-1.4
		c-4.2,3.6-9.6,5.4-14.1,5.4c-19.2,0-30.1-13.5-30.1-32.7c0-19.3,10.9-33.6,30.1-33.6c12.8,0,21.1,4.1,25.8,13.7
		c0.2,0.5,0.3,0.9,0.3,1.5c0,1.2-0.5,2.1-1.5,2.7l-7.3,3.7c-0.5,0.2-0.9,0.3-1.5,0.3c-1.2,0-2.3-0.5-2.8-1.5
		c-3.4-5.8-7.7-6.1-13-6.1c-9.8,0-13.5,9.5-13.5,19.3c0,9.9,3.7,18.4,13.5,18.4c4,0,9.2-1.8,13.1-6.3v-4.7h-7.1
		c-1.5,0-3.1-1-3.1-2.9v-7.3c0-1.7,1.6-3.1,3.1-3.1H239z"/>
	<path d="M310.3,186c9.8,0,12.5-7,12.5-16.5c0-9.4-2.7-17.4-12.5-17.4h-7.1V186H310.3z M310.3,137c19.2,0,29.1,13.8,29.1,32.5
		c0,18.6-9.9,31.6-29.1,31.6h-20.8c-1.7,0-2.9-1.5-2.9-2.9v-58.1c0-1.7,1.2-3,2.9-3C289.5,137,310.3,137,310.3,137z"/>
	<path d="M398,137c1.5,0,3.1,1,3.1,2.9v9.8c0,1.7-1.6,3-3.1,3h-27.1v8.8h19.2c1.5,0,3.1,1.4,3.1,3v8.8c0,1.9-1.6,2.9-3.1,2.9h-19.2
		v8.9H398c1.5,0,3.1,1.4,3.1,3.1v9.8c0,1.9-1.6,2.9-3.1,2.9h-40.8c-1.7,0-2.9-1.5-2.9-2.9V140c0-1.5,1.2-2.9,2.9-2.9
		C357.2,137,398,137,398,137z"/>
	<path d="M434.4,152.2V171h6c9.9,0,11.2-4.5,11.2-9v-0.9c0-4.5-1.2-8.9-11.2-8.9H434.4z M440.4,137c19.3,0,27.8,11.7,27.8,24v0.9
		c0,8-3.5,15.5-10.8,20l7.7,16.3c0,0.7-0.3,1.4-0.8,1.9c-0.6,0.6-1.4,1-2.1,1h-10.5c-1,0-1.8-0.6-2.4-1.4c-0.4-0.5-0.7-1-1-1.6
		l-5.7-12.1h-8v12.1c0,0.7-0.2,1.2-0.6,1.8c-0.5,0.7-1.2,1.1-2.3,1.1h-10.8c-1,0-1.8-0.6-2.4-1.4c-0.3-0.5-0.6-1-0.6-1.6v-58.1
		c0-0.7,0.1-1.2,0.5-1.7c0.6-0.8,1.5-1.4,2.5-1.4C420.8,137,440.4,137,440.4,137z"/>
	<path d="M-82.6,240.2v166.1c0,4.2-2.6,8.4-8.1,8.4h-31c-4.8,0-8.4-4.2-8.4-8.4V240.2c0-4.8,3.5-8.7,8.4-8.7h31
		C-85.2,231.5-82.6,235.4-82.6,240.2"/>
	<path d="M9.6,371.5c28.1,0,35.8-20,35.8-47.1c0-26.8-7.8-49.7-35.8-49.7h-20.3v96.8C-10.8,371.5,9.6,371.5,9.6,371.5z M9.6,231.5
		c54.8,0,83.2,39.4,83.2,92.9c0,53.2-28.4,90.3-83.2,90.3h-59.3c-4.8,0-8.4-4.2-8.4-8.4V240.2c0-4.8,3.5-8.7,8.4-8.7
		C-49.8,231.5,9.6,231.5,9.6,231.5z"/>
	<path d="M317.4,366.7c0,1-0.4,2.1-1.1,2.9c-0.8,1-2,1.7-3.5,1.7h-46.2c-1.4,0-2.8-0.6-3.7-1.7c-0.6-0.7-1-1.7-1-2.9v-15.4
		c0-2.6,2.5-4.8,4.8-4.8h24.8v-46.9h-24.8c-2.3,0-4.8-1.6-4.8-4.6v-15.4c0-1.1,0.4-2.1,1.1-2.9c0.9-1.1,2.4-1.8,3.7-1.8h46.2
		c1.5,0,2.9,0.7,3.7,1.8c0.6,0.8,0.9,1.8,0.9,2.9L317.4,366.7L317.4,366.7z M212.9,366.7c0,1-0.4,2.1-1.1,2.9c-0.8,1-2,1.7-3.5,1.7
		h-46.2c-1.4,0-2.8-0.6-3.7-1.7c-0.6-0.7-1-1.7-1-2.9v-15.4c0-2.6,2.4-4.8,4.8-4.8h24.8v-46.9h-24.8c-2.3,0-4.8-1.6-4.8-4.6v-15.4
		c0-1.1,0.4-2.1,1.1-2.9c0.9-1.1,2.3-1.8,3.7-1.8h46.2c1.6,0,2.9,0.7,3.6,1.8c0.6,0.8,0.9,1.8,0.9,2.9L212.9,366.7L212.9,366.7z
		 M457.7,231.5h-30.6c-5.5,0-8.4,3.9-8.4,8.7v82.6c-27.1-43.5-40.7-64.8-47.8-76.1c-4.2-6.5-6.4-10-7.4-11c-1.3-2.9-5.5-4.2-8.1-4.2
		H116.8c-4.8,0-8.4,4.2-8.4,8.4v166.4c0,4.2,3.5,8.4,8.4,8.4h240c5.5,0,8.1-4.2,8.1-8.4v-83.9l55.8,88.1c2.3,3.6,5.5,4.2,8.1,4.2h29
		c4.2,0,8.4-4.2,8.4-8.4V240.2C466.1,235.4,461.9,231.5,457.7,231.5"/>
</g>
</svg>
